Normalized EMG Linear Envelopes
nRows=134
nColumns=4

endheader
time	 med_gas_r	  soleus_r	 tib_ant_r	
3.37478	  0.074865	  0.091833	  0.030466	
3.43728	  0.075507	  0.094339	  0.030380	
3.49978	  0.074982	  0.095681	  0.029933	
3.56227	  0.073608	  0.094592	  0.029018	
3.62477	  0.073223	  0.091185	  0.027654	
3.68726	  0.072751	  0.088960	  0.026560	
3.74976	  0.073235	  0.088446	  0.026266	
3.81226	  0.074454	  0.088916	  0.027443	
3.87475	  0.074675	  0.089485	  0.029120	
3.93725	  0.073687	  0.089831	  0.030147	
3.99974	  0.071759	  0.090431	  0.030739	
4.06224	  0.069954	  0.091677	  0.031388	
4.12474	  0.072035	  0.092710	  0.032122	
4.18723	  0.084210	  0.093523	  0.032343	
4.24973	  0.114260	  0.097617	  0.032032	
4.31222	  0.166053	  0.112052	  0.032439	
4.37472	  0.231370	  0.143708	  0.034287	
4.43722	  0.311078	  0.192298	  0.039173	
4.49971	  0.402701	  0.254253	  0.049024	
4.56221	  0.508365	  0.323718	  0.063838	
4.6247	  0.625490	  0.403662	  0.083256	
4.6872	  0.731848	  0.500459	  0.104299	
4.7497	  0.777174	  0.584432	  0.123507	
4.81219	  0.762067	  0.609442	  0.136882	
4.87469	  0.723540	  0.591067	  0.145348	
4.93718	  0.681758	  0.572028	  0.146931	
4.99968	  0.653960	  0.569886	  0.141777	
5.06218	  0.643616	  0.575575	  0.132899	
5.12467	  0.636883	  0.579924	  0.124066	
5.18717	  0.617307	  0.596873	  0.117439	
5.24966	  0.594962	  0.604491	  0.114654	
5.31216	  0.572332	  0.598511	  0.113818	
5.37466	  0.555035	  0.588827	  0.111434	
5.43715	  0.545752	  0.564209	  0.106297	
5.49965	  0.562812	  0.537862	  0.102110	
5.56214	  0.591550	  0.518927	  0.099987	
5.62464	  0.612509	  0.495753	  0.099036	
5.68714	  0.627750	  0.471614	  0.098982	
5.74963	  0.640636	  0.462193	  0.101481	
5.81213	  0.665106	  0.474049	  0.105218	
5.87462	  0.696329	  0.499403	  0.106923	
5.93712	  0.718853	  0.533997	  0.109714	
5.99962	  0.703643	  0.569389	  0.112491	
6.06211	  0.674996	  0.589095	  0.111731	
6.12461	  0.639614	  0.589443	  0.107757	
6.1871	  0.607074	  0.579165	  0.104154	
6.2496	  0.582867	  0.569985	  0.101979	
6.3121	  0.576899	  0.562732	  0.100883	
6.37459	  0.591195	  0.554536	  0.099514	
6.43709	  0.626672	  0.543682	  0.097754	
6.49958	  0.658907	  0.535446	  0.097857	
6.56208	  0.682114	  0.531405	  0.100980	
6.62458	  0.690096	  0.533476	  0.106480	
6.68707	  0.680777	  0.549669	  0.113565	
6.74957	  0.673574	  0.569568	  0.118075	
6.81206	  0.666180	  0.568252	  0.115718	
6.87456	  0.659385	  0.537572	  0.110464	
6.93706	  0.647510	  0.500871	  0.106512	
6.99955	  0.632616	  0.483664	  0.102808	
7.06205	  0.613794	  0.506112	  0.098564	
7.12454	  0.608999	  0.561560	  0.096462	
7.18704	  0.621355	  0.621880	  0.098098	
7.24954	  0.631314	  0.651403	  0.101900	
7.31203	  0.629318	  0.641411	  0.105362	
7.37453	  0.626037	  0.608213	  0.106357	
7.43702	  0.633632	  0.574348	  0.105543	
7.49952	  0.658415	  0.548330	  0.104334	
7.56202	  0.685725	  0.524959	  0.103050	
7.62451	  0.711369	  0.506459	  0.102018	
7.68701	  0.711626	  0.512143	  0.101677	
7.7495	  0.690376	  0.546891	  0.099001	
7.812	  0.662921	  0.594475	  0.094690	
7.8745	  0.640519	  0.645293	  0.093592	
7.93699	  0.634914	  0.698682	  0.095640	
7.99949	  0.655866	  0.743963	  0.100632	
8.06198	  0.692890	  0.775807	  0.105428	
8.12448	  0.737783	  0.778156	  0.108783	
8.18698	  0.771500	  0.753116	  0.111704	
8.24947	  0.769729	  0.729960	  0.113762	
8.31197	  0.743431	  0.707414	  0.114032	
8.37446	  0.733652	  0.683301	  0.112761	
8.43696	  0.733915	  0.672209	  0.108480	
8.49946	  0.731821	  0.683257	  0.103090	
8.56195	  0.724006	  0.712491	  0.101674	
8.62445	  0.699219	  0.750735	  0.104264	
8.68694	  0.685782	  0.788339	  0.108575	
8.74944	  0.691499	  0.827766	  0.111788	
8.81194	  0.706570	  0.858680	  0.112975	
8.87443	  0.730089	  0.868815	  0.112544	
8.93693	  0.763436	  0.846115	  0.110520	
8.99942	  0.802112	  0.793432	  0.108635	
9.06192	  0.834646	  0.749814	  0.106467	
9.12442	  0.818048	  0.746562	  0.103292	
9.18691	  0.765482	  0.756682	  0.100869	
9.24941	  0.707862	  0.746927	  0.099185	
9.3119	  0.664755	  0.730970	  0.098268	
9.3744	  0.647927	  0.711489	  0.098109	
9.4369	  0.646805	  0.697670	  0.096284	
9.49939	  0.634932	  0.690163	  0.093976	
9.56189	  0.614769	  0.667041	  0.091848	
9.62438	  0.595300	  0.618939	  0.088092	
9.68688	  0.569749	  0.547073	  0.083512	
9.74938	  0.525245	  0.459636	  0.078350	
9.81187	  0.482304	  0.369242	  0.074112	
9.87437	  0.452960	  0.284317	  0.070785	
9.93686	  0.432008	  0.213304	  0.067178	
9.99936	  0.422062	  0.166679	  0.065232	
10.0619	  0.397908	  0.142346	  0.066014	
10.1244	  0.359910	  0.130678	  0.068576	
10.1868	  0.321870	  0.125355	  0.072124	
10.2493	  0.291676	  0.119544	  0.073966	
10.3118	  0.285519	  0.114727	  0.076529	
10.3743	  0.297124	  0.114751	  0.079134	
10.4368	  0.309814	  0.116557	  0.080356	
10.4993	  0.325792	  0.117071	  0.079707	
10.5618	  0.332263	  0.114823	  0.078816	
10.6243	  0.324848	  0.110821	  0.078242	
10.6868	  0.312232	  0.108704	  0.077807	
10.7493	  0.294273	  0.108921	  0.077812	
10.8118	  0.275021	  0.110049	  0.075191	
10.8743	  0.268522	  0.112084	  0.068415	
10.9368	  0.262152	  0.116078	  0.060309	
10.9993	  0.255243	  0.118919	  0.051836	
11.0618	  0.255902	  0.116933	  0.044833	
11.1243	  0.261016	  0.111825	  0.040919	
11.1868	  0.254036	  0.106983	  0.038903	
11.2493	  0.236808	  0.102087	  0.038703	
11.3118	  0.225371	  0.098217	  0.040224	
11.3743	  0.222980	  0.096666	  0.041445	
11.4368	  0.221150	  0.096727	  0.039635	
11.4993	  0.223675	  0.097362	  0.037045	
11.5618	  0.236714	  0.099325	  0.034989	
11.6243	  0.246748	  0.100856	  0.033199	
11.6868	  0.254953	  0.100809	  0.031816	
